# xmcd CD database file
#
# Track frame offsets:
#	150
#	55509
#	80725
#	105433
#	141880
#	175219
#
# Disc length: 2801 seconds
#
# Revision: 1
# Processed by: cddbd v1.5.2PL0 Copyright (c) Steve Scherf et al.
# Submitted via: CDex 1.51
#
DISCID=460aef06
DTITLE=Don Cherry, Dewey Redman, Charlie Haden, Ed Blackwell - Old And New Dreams
DYEAR=1979
DGENRE=Jazz
TTITLE0=Lonely woman
TTITLE1=Togo
TTITLE2=Guinea
TTITLE3=Open or close
TTITLE4=Orbit of la-ba
TTITLE5=Song for the whales
EXTD=YEAR: 1979
EXTT0=
EXTT1=
EXTT2=
EXTT3=
EXTT4=
EXTT5=
PLAYORDER=
